<svg width="17" height="16" viewBox="0 0 17 16" fill="none" xmlns="http://www.w3.org/2000/svg">
<g id=" edit-2" clip-path="url(#clip0_7580_3887)">
<path id="Vector" d="M11.8333 2.00004C12.0084 1.82494 12.2163 1.68605 12.4451 1.59129C12.6738 1.49653 12.919 1.44775 13.1666 1.44775C13.4143 1.44775 13.6595 1.49653 13.8882 1.59129C14.117 1.68605 14.3249 1.82494 14.5 2.00004C14.6751 2.17513 14.814 2.383 14.9087 2.61178C15.0035 2.84055 15.0523 3.08575 15.0523 3.33337C15.0523 3.58099 15.0035 3.82619 14.9087 4.05497C14.814 4.28374 14.6751 4.49161 14.5 4.66671L5.49998 13.6667L1.83331 14.6667L2.83331 11L11.8333 2.00004Z" stroke="#EF4444" stroke-width="2" stroke-linecap="round" stroke-linejoin="round"/>
</g>
<defs>
<clipPath id="clip0_7580_3887">
<rect width="16" height="16" fill="white" transform="translate(0.5)"/>
</clipPath>
</defs>
</svg>
